<svg width="26" height="26" viewBox="0 0 26 26" fill="none" xmlns="http://www.w3.org/2000/svg">
<circle cx="12.7568" cy="11.54" r="1.05265" stroke="#516F91" stroke-width="0.842122"/>
<path d="M16.3262 10.5039C16.7289 10.929 16.9303 11.1416 16.9303 11.54C16.9303 11.9385 16.7289 12.1511 16.3262 12.5762C15.5218 13.4252 14.2226 14.4875 12.7568 14.4875C11.291 14.4875 9.99176 13.4252 9.18739 12.5762C8.78467 12.1511 8.58331 11.9385 8.58331 11.54C8.58331 11.1416 8.78467 10.929 9.18739 10.5039C9.99176 9.65482 11.291 8.59261 12.7568 8.59261C14.2226 8.59261 15.5218 9.65482 16.3262 10.5039Z" stroke="#516F91" stroke-width="1.68424"/>
<path d="M19.8829 5.88824L13.4203 3.11855C12.9966 2.93698 12.517 2.93698 12.0934 3.11855L5.63075 5.88824C4.9487 6.18054 4.53832 6.88479 4.62026 7.6223L5.37931 14.4537C5.54746 15.967 6.29462 17.3566 7.46432 18.3313L11.6786 21.8432C12.3032 22.3637 13.2104 22.3637 13.835 21.8432L18.0493 18.3313C19.219 17.3566 19.9662 15.967 20.1343 14.4537L20.8934 7.6223C20.9753 6.88479 20.5649 6.18054 19.8829 5.88824Z" stroke="#516F91" stroke-width="1.68424" stroke-linecap="round"/>
</svg>
