<svg width="20" height="22" viewBox="0 0 20 22" fill="none" xmlns="http://www.w3.org/2000/svg">
<path d="M1.3356 11.9098C1.3356 10.0241 1.3356 9.08133 1.92139 8.49555C2.50717 7.90976 3.44998 7.90976 5.3356 7.90976H14.178C16.0637 7.90976 17.0065 7.90976 17.5923 8.49555C18.1781 9.08133 18.1781 10.0241 18.1781 11.9098V14.5416C18.1781 17.37 18.1781 18.7842 17.2994 19.6629C16.4207 20.5416 15.0065 20.5416 12.1781 20.5416H7.3356C4.50718 20.5416 3.09296 20.5416 2.21428 19.6629C1.3356 18.7842 1.3356 17.37 1.3356 14.5416V11.9098Z" stroke="#516F91" stroke-width="1.68424"/>
<path d="M13.9674 6.85711V5.80445C13.9674 3.479 12.0823 1.59384 9.75682 1.59384V1.59384C7.43136 1.59384 5.5462 3.479 5.5462 5.80445V6.85711" stroke="#516F91" stroke-width="1.68424" stroke-linecap="round"/>
<circle cx="9.75683" cy="14.2257" r="2.10531" fill="#516F91"/>
</svg>
