<svg width="27" height="26" viewBox="0 0 27 26" fill="none" xmlns="http://www.w3.org/2000/svg">
<path d="M16.4751 4.58266V3.74053H15.633H11.4224H10.5802V4.58266V4.79319C10.5802 4.80409 10.5802 4.81515 10.5802 4.82635C10.5801 4.99467 10.58 5.19507 10.6032 5.36742C10.6311 5.57546 10.706 5.86325 10.9502 6.10745C11.1944 6.35166 11.4822 6.42654 11.6903 6.45451C11.8626 6.47768 12.063 6.47755 12.2313 6.47745C12.2425 6.47744 12.2536 6.47743 12.2645 6.47743H14.7909C14.8018 6.47743 14.8128 6.47744 14.824 6.47745C14.9923 6.47755 15.1927 6.47768 15.3651 6.45451C15.5731 6.42654 15.8609 6.35166 16.1051 6.10745C16.3493 5.86325 16.4242 5.57546 16.4522 5.36742C16.4753 5.19507 16.4752 4.99467 16.4751 4.82635C16.4751 4.81515 16.4751 4.80409 16.4751 4.79319V4.58266Z" stroke="#274C77" stroke-width="1.68424"/>
<rect x="8.05385" y="3.31948" width="10.9476" height="19.3688" rx="0.842122" stroke="#274C77" stroke-width="1.68424"/>
<circle cx="13.5277" cy="19.3198" r="1.05265" fill="#274C77"/>
</svg>
