<svg width="27" height="26" viewBox="0 0 27 26" fill="none" xmlns="http://www.w3.org/2000/svg">
<path d="M17.0116 12.9561L17.5693 12.3251L17.0116 12.9561ZM10.0438 12.9562L9.48608 12.3252L10.0438 12.9562ZM11.2118 5.74324C11.2118 4.81306 11.9659 4.059 12.8961 4.059V2.37475C11.0357 2.37475 9.5276 3.88287 9.5276 5.74324H11.2118ZM11.2118 12.2697V5.74324H9.5276V12.2697H11.2118ZM9.10659 16.9014C9.10659 15.582 9.68342 14.3985 10.6014 13.5872L9.48608 12.3252C8.22169 13.4426 7.42234 15.0792 7.42234 16.9014H9.10659ZM13.5277 21.3225C11.086 21.3225 9.10659 19.3431 9.10659 16.9014H7.42234C7.42234 20.2733 10.1558 23.0068 13.5277 23.0068V21.3225ZM17.9489 16.9014C17.9489 19.3431 15.9695 21.3225 13.5277 21.3225V23.0068C16.8996 23.0068 19.6331 20.2733 19.6331 16.9014H17.9489ZM16.454 13.5871C17.372 14.3984 17.9489 15.582 17.9489 16.9014H19.6331C19.6331 15.0791 18.8337 13.4425 17.5693 12.3251L16.454 13.5871ZM15.8435 5.74324V12.2696H17.5278V5.74324H15.8435ZM14.1593 4.059C15.0895 4.059 15.8435 4.81306 15.8435 5.74324H17.5278C17.5278 3.88287 16.0196 2.37475 14.1593 2.37475V4.059ZM12.8961 4.059H14.1593V2.37475H12.8961V4.059ZM17.5693 12.3251C17.5487 12.3069 17.537 12.2895 17.5315 12.2782C17.5265 12.2678 17.5278 12.2654 17.5278 12.2696H15.8435C15.8435 12.8105 16.1023 13.2763 16.454 13.5871L17.5693 12.3251ZM9.5276 12.2697C9.5276 12.2655 9.52884 12.2679 9.52381 12.2783C9.51832 12.2895 9.50669 12.307 9.48608 12.3252L10.6014 13.5872C10.9531 13.2764 11.2118 12.8106 11.2118 12.2697H9.5276Z" fill="#274C77"/>
<circle cx="13.5276" cy="16.9014" r="2.31584" stroke="#274C77" stroke-width="1.68424"/>
</svg>
