<svg width="27" height="26" viewBox="0 0 27 26" fill="none" xmlns="http://www.w3.org/2000/svg">
<path d="M15.7763 4.23834H16.6184V4.19634L16.6142 4.15455L15.7763 4.23834ZM15.4846 3.07077L14.8709 3.64735L14.8709 3.64736L15.4846 3.07077ZM15.7763 4.23835H14.9342V4.28036L14.9384 4.32215L15.7763 4.23835ZM16.341 6.27878L16.7532 5.54447L16.7532 5.54447L16.341 6.27878ZM16.5255 6.35521L16.2978 7.16596L16.2978 7.16596L16.5255 6.35521ZM18.3676 5.31172L18.9008 5.96348V5.96348L18.3676 5.31172ZM19.3994 4.69237L19.373 3.85066L19.3994 4.69237ZM19.5356 4.69916L19.6455 3.86425L19.6455 3.86425L19.5356 4.69916ZM20.5006 5.4181L19.9052 6.01357V6.01357L20.5006 5.4181ZM21.4412 6.35864L22.0366 5.76317V5.76317L21.4412 6.35864ZM22.1601 7.32376L21.3252 7.43365L21.3252 7.43365L22.1601 7.32376ZM22.1669 7.45991L23.0087 7.48618V7.48616L22.1669 7.45991ZM21.5476 8.49178L22.1993 9.02504L22.1993 9.02504L21.5476 8.49178ZM20.504 10.334L21.3147 10.1062L21.3147 10.1062L20.504 10.334ZM20.5804 10.5184L21.3147 10.1062L21.3147 10.1062L20.5804 10.5184ZM22.621 11.0831L22.7048 10.2452H22.7048L22.621 11.0831ZM23.7886 11.3748L23.212 11.9886L23.212 11.9886L23.7886 11.3748ZM23.8801 11.4759L24.5481 10.9632L24.5481 10.9632L23.8801 11.4759ZM23.8801 15.1876L23.212 14.675L23.212 14.675L23.8801 15.1876ZM23.7885 15.2888L24.3651 15.9026L24.3651 15.9026L23.7885 15.2888ZM22.6211 15.5804L22.7048 16.4183L22.6211 15.5804ZM20.5809 16.1449L19.8467 15.7325L19.8467 15.7325L20.5809 16.1449ZM20.5043 16.3297L21.3151 16.5573L21.3151 16.5573L20.5043 16.3297ZM21.5477 18.1714L22.2053 17.6453L22.1995 17.6382L21.5477 18.1714ZM21.5477 18.1714L20.8901 18.6975L20.896 18.7047L21.5477 18.1714ZM22.167 19.203L21.3253 19.2294V19.2294L22.167 19.203ZM22.1602 19.3395L21.3253 19.2294L21.3253 19.2294L22.1602 19.3395ZM19.5356 21.9639L19.4257 21.129H19.4257L19.5356 21.9639ZM19.3994 21.9707L19.4257 21.129H19.4257L19.3994 21.9707ZM18.3676 21.3514L17.7722 21.9468L17.8019 21.9765L17.8344 22.0031L18.3676 21.3514ZM18.3676 21.3514L18.9631 20.7559L18.9334 20.7262L18.9009 20.6996L18.3676 21.3514ZM16.5255 20.3079L16.2978 19.4971L16.2978 19.4971L16.5255 20.3079ZM16.341 20.3843L16.7533 21.1186L16.7533 21.1186L16.341 20.3843ZM15.7763 22.4249L16.6143 22.5087V22.5087L15.7763 22.4249ZM15.4846 23.5929L14.8709 23.0162L14.8709 23.0162L15.4846 23.5929ZM15.3836 23.6842L15.8964 24.3522L15.8964 24.3522L15.3836 23.6842ZM11.6718 23.6842L11.1591 24.3523L11.1591 24.3523L11.6718 23.6842ZM11.5708 23.5928L10.957 24.1694L10.957 24.1694L11.5708 23.5928ZM11.2791 22.4251L10.4411 22.5089V22.5089L11.2791 22.4251ZM10.7143 20.3845L11.1264 19.6501L11.1264 19.6501L10.7143 20.3845ZM10.5299 20.3081L10.7578 19.4974L10.7578 19.4974L10.5299 20.3081ZM8.68759 21.3517L8.15433 20.7L8.15433 20.7L8.68759 21.3517ZM7.65562 21.9712L7.68182 22.8129H7.68183L7.65562 21.9712ZM7.51957 21.9644L7.40973 22.7993H7.40973L7.51957 21.9644ZM6.55436 21.2454L7.14983 20.6499L6.55436 21.2454ZM5.6139 20.3049L5.01843 20.9004H5.01843L5.6139 20.3049ZM4.89492 19.3398L4.05999 19.4497L4.05999 19.4497L4.89492 19.3398ZM4.88813 19.2036L5.72984 19.2299V19.2299L4.88813 19.2036ZM5.50752 18.1718L4.85575 17.6385L4.85575 17.6385L5.50752 18.1718ZM6.55107 16.3295L5.74034 16.5573L5.74034 16.5573L6.55107 16.3295ZM6.47468 16.1451L7.20902 15.7329L7.20902 15.7329L6.47468 16.1451ZM4.43415 15.5804L4.51795 14.7424L4.43415 15.5804ZM3.26655 15.2887L3.84316 14.675H3.84316L3.26655 15.2887ZM3.17508 15.1876L3.84316 14.675L3.84316 14.675L3.17508 15.1876ZM3.17514 11.4758L2.50712 10.9631L2.50712 10.9631L3.17514 11.4758ZM3.26648 11.3749L2.68979 10.7612L2.68979 10.7612L3.26648 11.3749ZM4.43427 11.0831V10.241H4.39227L4.35048 10.2452L4.43427 11.0831ZM4.43429 11.0831V11.9253H4.4763L4.51809 11.9211L4.43429 11.0831ZM6.47515 10.5182L5.74074 10.1062L5.74074 10.1062L6.47515 10.5182ZM6.55143 10.3341L7.36212 10.562L6.55143 10.3341ZM5.5077 8.49148L6.15947 7.95821L6.13287 7.92571L6.10317 7.89601L5.5077 8.49148ZM5.5077 8.49147L4.85593 9.02474L4.88253 9.05724L4.91223 9.08694L5.5077 8.49147ZM4.88817 7.45928L4.04645 7.48539V7.48539L4.88817 7.45928ZM4.89494 7.32343L4.06 7.2137L4.06 7.2137L4.89494 7.32343ZM5.61408 6.35804L5.01861 5.76257L5.01861 5.76257L5.61408 6.35804ZM6.55441 5.41771L5.95894 4.82224V4.82224L6.55441 5.41771ZM7.51961 4.69867L7.62945 5.5336H7.62945L7.51961 4.69867ZM7.65567 4.69189L7.68188 3.85017H7.68188L7.65567 4.69189ZM8.68772 5.31138L9.22098 4.65962L8.68772 5.31138ZM10.5298 6.35498L10.7575 7.16574L10.7575 7.16574L10.5298 6.35498ZM10.7145 6.27848L11.1268 7.01276L11.1268 7.01276L10.7145 6.27848ZM11.2791 4.23824L12.117 4.32204V4.32204L11.2791 4.23824ZM11.5707 3.07082L10.9569 2.49428L10.9568 2.49428L11.5707 3.07082ZM11.6719 2.97922L11.1593 2.31108V2.31108L11.6719 2.97922ZM15.3835 2.97926L14.8709 3.64736L14.8709 3.64736L15.3835 2.97926ZM16.6142 4.15455C16.5842 3.85458 16.5559 3.55806 16.5028 3.31383C16.4455 3.05066 16.3415 2.75298 16.0984 2.49417L14.8709 3.64736C14.8235 3.5969 14.8334 3.56327 14.857 3.67193C14.8848 3.79953 14.9044 3.98262 14.9384 4.32214L16.6142 4.15455ZM16.6184 4.23835V4.23834H14.9342V4.23835H16.6184ZM16.7532 5.54447C16.8796 5.61543 16.8437 5.70831 16.7806 5.44107C16.7183 5.1775 16.6776 4.78833 16.6142 4.15456L14.9384 4.32215C14.9967 4.90565 15.0473 5.42944 15.1414 5.82814C15.2347 6.22317 15.4202 6.72761 15.9287 7.01309L16.7532 5.54447ZM16.7532 5.54447V5.54447L15.9287 7.01309C16.0452 7.07851 16.1691 7.12983 16.2978 7.16596L16.7532 5.54447ZM17.8343 4.65995C17.3414 5.06327 17.0374 5.30966 16.807 5.45202C16.5734 5.59636 16.6137 5.50527 16.7532 5.54447L16.2978 7.16596C16.8592 7.32366 17.3471 7.09815 17.6924 6.88478C18.0409 6.66943 18.447 6.33482 18.9008 5.96348L17.8343 4.65995ZM19.373 3.85066C19.0181 3.86175 18.7342 3.99873 18.5076 4.14433C18.2973 4.27944 18.0676 4.46906 17.8343 4.65995L18.9008 5.96348C19.1649 5.74743 19.3082 5.63184 19.4181 5.56125C19.5116 5.50114 19.4949 5.53192 19.4257 5.53408L19.373 3.85066ZM19.6455 3.86425C19.5552 3.85236 19.4641 3.84781 19.373 3.85066L19.4257 5.53408L19.4257 5.53408L19.6455 3.86425ZM21.0961 4.82263C20.8829 4.60948 20.6732 4.39794 20.4775 4.24257C20.2665 4.07516 19.9976 3.9106 19.6455 3.86425L19.4257 5.53408C19.357 5.52504 19.3434 5.49275 19.4305 5.56187C19.5328 5.64304 19.6639 5.77231 19.9052 6.01357L21.0961 4.82263ZM22.0366 5.76317L21.0961 4.82263L19.9052 6.01357L20.8457 6.95411L22.0366 5.76317ZM22.9951 7.21387C22.9487 6.8618 22.7842 6.59283 22.6167 6.38185C22.4614 6.18606 22.2498 5.97635 22.0366 5.76317L20.8457 6.95411C21.087 7.19539 21.2163 7.32652 21.2974 7.42881C21.3666 7.51592 21.3343 7.50228 21.3252 7.43365L22.9951 7.21387ZM23.0087 7.48616C23.0115 7.39518 23.0069 7.30411 22.9951 7.21386L21.3252 7.43365L23.0087 7.48616ZM22.1993 9.02504C22.3902 8.79171 22.5799 8.56199 22.715 8.35171C22.8606 8.12511 22.9976 7.84111 23.0087 7.48618L21.3252 7.43364C21.3274 7.36445 21.3582 7.34767 21.2981 7.44122C21.2275 7.55108 21.1119 7.69442 20.8958 7.95851L22.1993 9.02504ZM21.3147 10.1062C21.354 10.2458 21.2628 10.286 21.4072 10.0524C21.5496 9.82204 21.796 9.51803 22.1993 9.02504L20.8958 7.95851C20.5244 8.4124 20.1898 8.81856 19.9744 9.16708C19.761 9.5124 19.5355 10.0003 19.6933 10.5618L21.3147 10.1062ZM21.3147 10.1062L21.3147 10.1062L19.6933 10.5618C19.7294 10.6903 19.7807 10.8142 19.8461 10.9306L21.3147 10.1062ZM22.7048 10.2452C22.0709 10.1818 21.6817 10.1411 21.4181 10.0788C21.1509 10.0157 21.2438 9.97978 21.3147 10.1062L19.8461 10.9306C20.1315 11.4392 20.636 11.6247 21.0311 11.718C21.4298 11.8122 21.9536 11.8627 22.5372 11.9211L22.7048 10.2452ZM24.3652 10.7611C24.1064 10.5179 23.8087 10.414 23.5455 10.3567C23.3013 10.3035 23.0047 10.2752 22.7048 10.2452L22.5372 11.9211C22.8767 11.955 23.0598 11.9747 23.1874 12.0024C23.2961 12.0261 23.2624 12.036 23.212 11.9886L24.3652 10.7611ZM24.5481 10.9632C24.4927 10.891 24.4316 10.8234 24.3652 10.7611L23.212 11.9886L23.212 11.9886L24.5481 10.9632ZM24.8962 12.6667C24.8962 12.3653 24.8975 12.0674 24.8689 11.8191C24.8382 11.5515 24.7643 11.2449 24.5481 10.9632L23.212 11.9886C23.1698 11.9336 23.183 11.9012 23.1957 12.0116C23.2107 12.1414 23.212 12.3255 23.212 12.6667H24.8962ZM24.8962 13.9969V12.6667H23.212V13.9969H24.8962ZM24.5483 15.7002C24.7644 15.4185 24.8382 15.112 24.869 14.8444C24.8975 14.5962 24.8962 14.2983 24.8962 13.9969H23.212C23.212 14.3381 23.2107 14.5222 23.1958 14.6519C23.183 14.7624 23.1698 14.7299 23.212 14.675L24.5483 15.7002ZM24.3651 15.9026C24.4315 15.8402 24.4928 15.7725 24.5483 15.7002L23.212 14.675V14.675L24.3651 15.9026ZM22.7048 16.4183C23.0048 16.3883 23.3013 16.36 23.5455 16.3069C23.8086 16.2496 24.1063 16.1457 24.3651 15.9026L23.212 14.675C23.2624 14.6276 23.2961 14.6375 23.1874 14.6611C23.0598 14.6889 22.8767 14.7085 22.5373 14.7424L22.7048 16.4183ZM21.3151 16.5573C21.2442 16.6837 21.1513 16.6477 21.4185 16.5846C21.6821 16.5224 22.0712 16.4817 22.7048 16.4183L22.5373 14.7424C21.9538 14.8008 21.4301 14.8513 21.0315 14.9455C20.6365 15.0387 20.1322 15.2242 19.8467 15.7325L21.3151 16.5573ZM21.3151 16.5573V16.5573L19.8467 15.7325C19.7811 15.8492 19.7297 15.9733 19.6936 16.1021L21.3151 16.5573ZM22.1995 17.6382C21.7962 17.1453 21.5499 16.8414 21.4076 16.6111C21.2632 16.3775 21.3543 16.4177 21.3151 16.5573L19.6936 16.1021C19.536 16.6635 19.7615 17.1512 19.9748 17.4965C20.1901 17.8449 20.5247 18.2509 20.8959 18.7047L22.1995 17.6382ZM22.2053 17.6454L22.2053 17.6453L20.8901 18.6975L20.8901 18.6975L22.2053 17.6454ZM23.0087 19.1766C22.9976 18.8218 22.8606 18.5378 22.715 18.3113C22.5799 18.1011 22.3903 17.8714 22.1995 17.6382L20.896 18.7047C21.112 18.9687 21.2275 19.112 21.2981 19.2218C21.3582 19.3154 21.3274 19.2986 21.3253 19.2294L23.0087 19.1766ZM22.9951 19.4495C23.007 19.359 23.0116 19.2678 23.0087 19.1766L21.3253 19.2294L21.3253 19.2294L22.9951 19.4495ZM22.0368 20.8998C22.2499 20.6867 22.4614 20.477 22.6168 20.2813C22.7842 20.0703 22.9487 19.8015 22.9951 19.4495L21.3253 19.2294C21.3343 19.1608 21.3666 19.1472 21.2975 19.2343C21.2163 19.3365 21.0871 19.4676 20.8459 19.7088L22.0368 20.8998ZM21.0961 21.8404L22.0368 20.8998L20.8459 19.7088L19.9052 20.6495L21.0961 21.8404ZM19.6456 22.7988C19.9976 22.7525 20.2665 22.5879 20.4775 22.4205C20.6733 22.2651 20.883 22.0536 21.0961 21.8404L19.9052 20.6495C19.6639 20.8908 19.5328 21.02 19.4305 21.1012C19.3434 21.1703 19.3571 21.138 19.4257 21.129L19.6456 22.7988ZM19.3731 22.8124C19.4641 22.8153 19.5553 22.8107 19.6456 22.7988L19.4257 21.129H19.4257L19.3731 22.8124ZM17.8344 22.0031C18.0677 22.194 18.2974 22.3836 18.5076 22.5187C18.7342 22.6643 19.0182 22.8013 19.3731 22.8124L19.4257 21.129C19.4949 21.1312 19.5117 21.1619 19.4181 21.1018C19.3083 21.0312 19.165 20.9156 18.9009 20.6996L17.8344 22.0031ZM17.7721 21.9468L17.7722 21.9468L18.9631 20.7559L18.9631 20.7559L17.7721 21.9468ZM16.7533 21.1186C16.6137 21.1578 16.5735 21.0667 16.807 21.2111C17.0374 21.3534 17.3414 21.5998 17.8344 22.0031L18.9009 20.6996C18.447 20.3283 18.0409 19.9936 17.6924 19.7783C17.3471 19.5649 16.8592 19.3394 16.2978 19.4971L16.7533 21.1186ZM16.7533 21.1186L16.7533 21.1186L16.2978 19.4971C16.1692 19.5332 16.0453 19.5846 15.9287 19.65L16.7533 21.1186ZM16.6143 22.5087C16.6776 21.8749 16.7184 21.4857 16.7806 21.222C16.8437 20.9547 16.8797 21.0476 16.7533 21.1186L15.9288 19.65C15.4202 19.9355 15.2347 20.44 15.1415 20.835C15.0473 21.2337 14.9967 21.7576 14.9384 22.3411L16.6143 22.5087ZM16.0982 24.1695C16.3415 23.9107 16.4455 23.6129 16.5027 23.3497C16.5559 23.1054 16.5843 22.8088 16.6143 22.5087L14.9384 22.3411C14.9044 22.6808 14.8848 22.8639 14.857 22.9916C14.8334 23.1003 14.8234 23.0666 14.8709 23.0162L16.0982 24.1695ZM15.8964 24.3522C15.9685 24.2969 16.036 24.2358 16.0982 24.1695L14.8709 23.0162L14.8709 23.0162L15.8964 24.3522ZM14.1926 24.7004C14.4941 24.7004 14.7921 24.7017 15.0404 24.6731C15.308 24.6423 15.6146 24.5685 15.8964 24.3522L14.8709 23.0162C14.9258 22.974 14.9583 22.9872 14.8478 22.9999C14.7181 23.0149 14.5339 23.0162 14.1926 23.0162V24.7004ZM12.8627 24.7004H14.1926V23.0162H12.8627V24.7004ZM11.1591 24.3523C11.4408 24.5685 11.7474 24.6423 12.015 24.6731C12.2633 24.7017 12.5612 24.7004 12.8627 24.7004V23.0162C12.5214 23.0162 12.3373 23.0149 12.2075 22.9999C12.0971 22.9872 12.1296 22.974 12.1845 23.0162L11.1591 24.3523ZM10.957 24.1694C11.0193 24.2358 11.0869 24.2969 11.1591 24.3523L12.1845 23.0162L12.1845 23.0162L10.957 24.1694ZM10.4411 22.5089C10.4711 22.8089 10.4995 23.1055 10.5526 23.3497C10.6099 23.6129 10.7138 23.9106 10.957 24.1694L12.1845 23.0162C12.2319 23.0666 12.222 23.1003 12.1983 22.9916C12.1706 22.864 12.151 22.6809 12.117 22.3413L10.4411 22.5089ZM10.3021 21.1189C10.1757 21.0479 10.2116 20.955 10.2747 21.2223C10.337 21.4859 10.3777 21.8751 10.4411 22.5089L12.117 22.3413C12.0586 21.7578 12.0081 21.2339 11.9139 20.8352C11.8206 20.4401 11.635 19.9356 11.1264 19.6501L10.3021 21.1189ZM10.3021 21.1189L10.3021 21.1189L11.1264 19.6501C11.01 19.5848 10.8863 19.5335 10.7578 19.4974L10.3021 21.1189ZM9.22086 22.0035C9.71389 21.6001 10.0179 21.3537 10.2483 21.2113C10.4819 21.067 10.4417 21.1581 10.3021 21.1189L10.7578 19.4974C10.1963 19.3396 9.70832 19.5652 9.36299 19.7786C9.01444 19.9939 8.60826 20.3286 8.15433 20.7L9.22086 22.0035ZM7.68183 22.8129C8.0368 22.8018 8.32084 22.6648 8.54746 22.5192C8.75776 22.3841 8.9875 22.1944 9.22086 22.0035L8.15433 20.7C7.89021 20.9161 7.74685 21.0317 7.63698 21.1023C7.54342 21.1624 7.5602 21.1316 7.62941 21.1295L7.68183 22.8129ZM7.40973 22.7993C7.49991 22.8112 7.59091 22.8157 7.68182 22.8129L7.62941 21.1295H7.6294L7.40973 22.7993ZM5.95889 21.8408C6.17208 22.054 6.38181 22.2656 6.57763 22.421C6.78863 22.5884 7.05762 22.753 7.40973 22.7993L7.6294 21.1295C7.69805 21.1385 7.71168 21.1708 7.62457 21.1017C7.52227 21.0205 7.39113 20.8912 7.14983 20.6499L5.95889 21.8408ZM5.01843 20.9004L5.95889 21.8408L7.14983 20.6499L6.20937 19.7094L5.01843 20.9004ZM4.05999 19.4497C4.10633 19.8017 4.27089 20.0707 4.43833 20.2817C4.5937 20.4775 4.80526 20.6872 5.01843 20.9004L6.20937 19.7094C5.96809 19.4682 5.8388 19.337 5.75763 19.2347C5.6885 19.1476 5.72081 19.1613 5.72984 19.2299L4.05999 19.4497ZM4.04641 19.1774C4.04357 19.2684 4.04812 19.3594 4.05999 19.4497L5.72984 19.2299H5.72984L4.04641 19.1774ZM4.85575 17.6385C4.66484 17.8718 4.47521 18.1016 4.34008 18.3118C4.19447 18.5384 4.05748 18.8224 4.04641 19.1774L5.72984 19.2299C5.72768 19.2991 5.6969 19.3159 5.75701 19.2223C5.82761 19.1125 5.94321 18.9691 6.15929 18.705L4.85575 17.6385ZM5.74034 16.5573C5.70113 16.4178 5.79223 16.3775 5.64788 16.6111C5.50551 16.8415 5.25911 17.1455 4.85575 17.6385L6.15929 18.705C6.53065 18.2511 6.86529 17.845 7.08065 17.4965C7.29403 17.1511 7.51955 16.6632 7.36181 16.1018L5.74034 16.5573ZM5.74034 16.5573L7.36181 16.1018C7.32568 15.9732 7.27439 15.8494 7.20902 15.7329L5.74034 16.5573ZM4.35036 16.4183C4.98417 16.4817 5.37336 16.5224 5.63695 16.5847C5.90419 16.6478 5.8113 16.6837 5.74034 16.5573L7.20902 15.7329C6.92356 15.2244 6.41909 15.0388 6.02403 14.9455C5.62531 14.8514 5.10149 14.8008 4.51795 14.7424L4.35036 16.4183ZM2.68995 15.9025C2.94876 16.1456 3.24644 16.2496 3.50962 16.3068C3.75386 16.36 4.05038 16.3883 4.35036 16.4183L4.51795 14.7424C4.17843 14.7085 3.99533 14.6889 3.86773 14.6611C3.75907 14.6375 3.79271 14.6276 3.84316 14.675L2.68995 15.9025ZM2.50699 15.7003C2.56241 15.7725 2.6236 15.8401 2.68995 15.9025L3.84316 14.675L3.84316 14.675L2.50699 15.7003ZM2.15892 13.9968C2.15892 14.2983 2.15761 14.5962 2.18619 14.8445C2.21699 15.112 2.29081 15.4186 2.50699 15.7003L3.84316 14.675C3.88531 14.7299 3.87211 14.7624 3.85939 14.6519C3.84446 14.5222 3.84316 14.338 3.84316 13.9968H2.15892ZM2.15892 12.6669V13.9968H3.84316V12.6669H2.15892ZM2.50712 10.9631C2.29086 11.2448 2.21701 11.5514 2.1862 11.819C2.15761 12.0674 2.15892 12.3653 2.15892 12.6669H3.84316C3.84316 12.3256 3.84446 12.1414 3.8594 12.0116C3.87212 11.9012 3.88532 11.9336 3.84316 11.9886L2.50712 10.9631ZM2.68979 10.7612C2.62356 10.8235 2.56247 10.891 2.50712 10.9631L3.84316 11.9886L3.84316 11.9886L2.68979 10.7612ZM4.35048 10.2452C4.05045 10.2752 3.75387 10.3035 3.50959 10.3567C3.24635 10.414 2.94862 10.518 2.68979 10.7612L3.84316 11.9886C3.7927 12.036 3.75906 12.0261 3.86773 12.0024C3.99535 11.9747 4.17848 11.955 4.51807 11.9211L4.35048 10.2452ZM4.43428 10.241H4.43427V11.9253H4.43428V10.241ZM4.43429 10.241H4.43428V11.9253H4.43429V10.241ZM5.74074 10.1062C5.81169 9.97972 5.90461 10.0157 5.63733 10.0788C5.3737 10.1411 4.98443 10.1818 4.3505 10.2452L4.51809 11.9211C5.10174 11.8627 5.62566 11.8121 6.02445 11.7179C6.41958 11.6246 6.92414 11.439 7.20957 10.9303L5.74074 10.1062ZM5.74074 10.1062L5.74074 10.1062L7.20957 10.9303C7.27482 10.814 7.32603 10.6904 7.36212 10.562L5.74074 10.1062ZM4.85593 9.02474C5.25939 9.51785 5.50585 9.82193 5.64825 10.0524C5.79263 10.286 5.70149 10.2458 5.74074 10.1062L7.36212 10.562C7.52 10.0005 7.29445 9.51244 7.08104 9.16706C6.86564 8.81846 6.53092 8.41221 6.15947 7.95821L4.85593 9.02474ZM4.91223 9.08694L4.91223 9.08695L6.10317 7.89601L6.10317 7.896L4.91223 9.08694ZM4.04645 7.48539C4.05747 7.84044 4.19448 8.12453 4.34012 8.3512C4.47527 8.56154 4.66496 8.79133 4.85593 9.02474L6.15947 7.95821C5.94332 7.69404 5.82768 7.55064 5.75707 7.44074C5.69694 7.34716 5.72774 7.36395 5.72989 7.43317L4.04645 7.48539ZM4.06 7.2137C4.04817 7.30375 4.04363 7.39461 4.04645 7.48539L5.72989 7.43317L5.72989 7.43317L4.06 7.2137ZM5.01861 5.76257C4.80537 5.9758 4.59376 6.18557 4.43835 6.38142C4.27088 6.59247 4.10629 6.86152 4.06 7.2137L5.72989 7.43317C5.72086 7.50182 5.68855 7.51546 5.75768 7.42834C5.83888 7.32602 5.9682 7.19485 6.20955 6.95351L5.01861 5.76257ZM5.01861 5.76256L5.01861 5.76257L6.20955 6.95351L6.20955 6.95351L5.01861 5.76256ZM5.95894 4.82224L5.01861 5.76256L6.20955 6.95351L7.14988 6.01318L5.95894 4.82224ZM7.40978 3.86375C7.05767 3.91007 6.78868 4.07464 6.57767 4.24208C6.38186 4.39747 6.17213 4.60904 5.95894 4.82224L7.14988 6.01318C7.39118 5.77188 7.52232 5.64258 7.62462 5.56139C7.71173 5.49227 7.69809 5.52457 7.62945 5.5336L7.40978 3.86375ZM7.68188 3.85017C7.59096 3.84734 7.49996 3.85188 7.40978 3.86375L7.62945 5.5336H7.62945L7.68188 3.85017ZM9.22098 4.65962C8.9876 4.46867 8.75784 4.279 8.54753 4.14386C8.32092 3.99824 8.03687 3.86123 7.68188 3.85017L7.62945 5.5336C7.56023 5.53145 7.54345 5.50065 7.63704 5.56079C7.74693 5.6314 7.89032 5.74704 8.15446 5.96315L9.22098 4.65962ZM10.3022 5.54421C10.4417 5.50502 10.482 5.59611 10.2483 5.45174C10.018 5.30936 9.71395 5.06295 9.22098 4.65962L8.15446 5.96315C8.60833 6.3345 9.01446 6.66912 9.36295 6.88447C9.7082 7.09783 10.1961 7.32338 10.7575 7.16574L10.3022 5.54421ZM10.3022 5.54421L10.3021 5.54421L10.7575 7.16574C10.8862 7.12959 11.0102 7.07824 11.1268 7.01276L10.3022 5.54421ZM10.4411 4.15445C10.3778 4.78816 10.337 5.17728 10.2748 5.44082C10.2117 5.70803 10.1758 5.61518 10.3022 5.54421L11.1268 7.01276C11.6352 6.72727 11.8207 6.22287 11.914 5.82787C12.0081 5.42921 12.0587 4.90548 12.117 4.32204L10.4411 4.15445ZM10.9568 2.49428C10.7138 2.75307 10.6098 3.05071 10.5526 3.31385C10.4995 3.55805 10.4711 3.85452 10.4411 4.15445L12.117 4.32204C12.151 3.98257 12.1706 3.7995 12.1983 3.67192C12.222 3.56328 12.2319 3.59691 12.1845 3.64736L10.9568 2.49428ZM11.1593 2.31108C11.087 2.36657 11.0193 2.42783 10.9569 2.49428L12.1845 3.64736L12.1845 3.64736L11.1593 2.31108ZM12.8625 1.96311C12.5611 1.96311 12.2633 1.96181 12.015 1.99038C11.7475 2.02117 11.441 2.09496 11.1593 2.31108L12.1845 3.64736C12.1296 3.68949 12.0971 3.6763 12.2075 3.66359C12.3373 3.64866 12.5214 3.64736 12.8625 3.64736V1.96311ZM14.1927 1.96311H12.8625V3.64736H14.1927V1.96311ZM15.8962 2.31117C15.6145 2.095 15.3079 2.02118 15.0404 1.99039C14.7921 1.96181 14.4942 1.96311 14.1927 1.96311V3.64736C14.5339 3.64736 14.7181 3.64866 14.8478 3.66359C14.9583 3.6763 14.9258 3.6895 14.8709 3.64736L15.8962 2.31117ZM16.0984 2.49418C16.0361 2.42781 15.9684 2.3666 15.8962 2.31116L14.8709 3.64736L14.8709 3.64735L16.0984 2.49418ZM16.8961 13.3318C16.8961 15.1921 15.388 16.7002 13.5276 16.7002V18.3845C16.3182 18.3845 18.5804 16.1223 18.5804 13.3318H16.8961ZM13.5276 9.96327C15.388 9.96327 16.8961 11.4714 16.8961 13.3318H18.5804C18.5804 10.5412 16.3182 8.27902 13.5276 8.27902V9.96327ZM10.1591 13.3318C10.1591 11.4714 11.6673 9.96327 13.5276 9.96327V8.27902C10.7371 8.27902 8.47489 10.5412 8.47489 13.3318H10.1591ZM13.5276 16.7002C11.6673 16.7002 10.1591 15.1921 10.1591 13.3318H8.47489C8.47489 16.1223 10.7371 18.3845 13.5276 18.3845V16.7002Z" fill="#274C77"/>
</svg>
