<svg width="18" height="20" viewBox="0 0 18 20" fill="none" xmlns="http://www.w3.org/2000/svg">
<path d="M6.59887 13.748H3.70665C3.06742 13.748 2.74781 13.748 2.48961 13.8337C1.98477 14.0011 1.58869 14.3972 1.42125 14.902C1.3356 15.1602 1.3356 15.4799 1.3356 16.1191V16.1191C1.3356 16.8822 1.3356 17.2638 1.44387 17.551C1.65613 18.114 2.15262 18.521 2.74633 18.6187C3.04918 18.6686 3.42334 18.5938 4.17165 18.4441L4.48334 18.3818C5.2064 18.2371 5.56792 18.1648 5.84278 17.9833C6.12641 17.796 6.34672 17.5273 6.47477 17.2124C6.59887 16.9073 6.59887 16.5386 6.59887 15.8012V5.983C6.59887 4.66108 6.59887 4.00012 6.98061 3.53446C7.36236 3.0688 8.01049 2.93918 9.30674 2.67993L13.0963 1.92202C14.9604 1.54919 15.8925 1.36278 16.5089 1.86815C17.1254 2.37352 17.1254 3.32404 17.1254 5.22509V6.37946M17.1254 11.6427V13.6959C17.1254 14.4333 17.1254 14.802 17.0013 15.1071C16.8733 15.422 16.6529 15.6907 16.3693 15.878C16.0945 16.0595 15.7329 16.1318 15.0099 16.2764L14.6982 16.3388C13.9499 16.4884 13.5757 16.5633 13.2729 16.5134C12.6791 16.4157 12.1827 16.0087 11.9704 15.4457C11.8621 15.1585 11.8621 14.7769 11.8621 14.0138V14.0138C11.8621 13.3745 11.8621 13.0549 11.9478 12.7967C12.1152 12.2919 12.5113 11.8958 13.0161 11.7284C13.2743 11.6427 13.594 11.6427 14.2332 11.6427H17.1254ZM17.1254 11.6427V6.37946M17.1254 6.37946L6.59887 8.48477" stroke="#516F91" stroke-width="1.68424"/>
</svg>
