<svg width="27" height="27" viewBox="0 0 27 27" fill="none" xmlns="http://www.w3.org/2000/svg">
<path d="M9.37174 13.0371L8.60754 12.6833C8.5993 12.7011 8.59107 12.7189 8.58288 12.7366C8.35498 13.2287 8.14572 13.6805 8.03436 14.0587C7.91493 14.4644 7.84344 14.9936 8.16304 15.4937C8.48263 15.9939 8.99292 16.1513 9.4112 16.2134C9.8012 16.2712 10.2991 16.2712 10.8414 16.2711C10.8609 16.2711 10.8805 16.2711 10.9001 16.2711H12.6855V21.0963L12.6855 21.1411C12.6855 21.4772 12.6854 21.7968 12.711 22.0347C12.724 22.1549 12.7503 22.335 12.8285 22.51C12.9153 22.7041 13.1173 22.9933 13.5118 23.0802C13.9062 23.1671 14.2111 22.9895 14.3713 22.8498C14.5159 22.7238 14.6154 22.5715 14.6777 22.4679C14.8008 22.2628 14.9351 21.9727 15.0762 21.6676L15.095 21.627L18.4478 14.385C18.456 14.3672 18.4643 14.3495 18.4725 14.3318C18.7004 13.8397 18.9096 13.3879 19.021 13.0096C19.1404 12.604 19.2119 12.0748 18.8923 11.5746C18.5727 11.0745 18.0624 10.917 17.6441 10.855C17.2541 10.7971 16.7562 10.7972 16.2139 10.7973C16.1944 10.7973 16.1748 10.7973 16.1552 10.7973H14.3698V5.97203C14.3698 5.9571 14.3698 5.94219 14.3698 5.92732C14.3698 5.5912 14.3699 5.27153 14.3443 5.03363C14.3314 4.91344 14.305 4.73342 14.2268 4.55832C14.1401 4.3643 13.938 4.07503 13.5436 3.98816C13.1491 3.90128 12.8442 4.07888 12.684 4.21852C12.5394 4.34454 12.4399 4.49683 12.3777 4.60048C12.2545 4.80562 12.1203 5.09571 11.9791 5.40075C11.9728 5.41425 11.9666 5.42778 11.9603 5.44134L8.60754 12.6833L9.37174 13.0371ZM13.2116 21.6352C13.2116 21.6351 13.2121 21.6344 13.2132 21.633C13.2121 21.6345 13.2116 21.6352 13.2116 21.6352ZM12.6641 5.17339C12.6641 5.17336 12.6642 5.17415 12.6646 5.17581L12.6641 5.17339ZM13.8437 5.43321C13.8437 5.43324 13.8432 5.43393 13.8423 5.43521C13.8432 5.43382 13.8437 5.43319 13.8437 5.43321ZM14.3913 21.895C14.3913 21.895 14.3911 21.8942 14.3907 21.8924L14.3913 21.895Z" stroke="#274C77" stroke-width="1.68424"/>
</svg>
