<svg width="27" height="26" viewBox="0 0 27 26" fill="none" xmlns="http://www.w3.org/2000/svg">
<path d="M19.8436 10.742L20.5756 11.1583L19.8436 10.742ZM19.8436 10.7421L20.6857 10.7421L19.8436 10.7421ZM19.8436 10.7421L20.5756 11.1583L19.8436 10.7421ZM15.2855 21.4316L15.7708 22.1198L15.2855 21.4316ZM15.6518 20.5993L16.4926 20.6467L15.6518 20.5993ZM15.6244 20.9163L16.4486 21.0892L15.6244 20.9163ZM11.4035 20.5993L10.5627 20.6467L11.4035 20.5993ZM11.4309 20.9163L12.2551 20.7434L11.4309 20.9163ZM11.7698 21.4316L11.2845 22.1198L11.7698 21.4316ZM16.5831 16.6108L15.8083 16.281L16.5831 16.6108ZM17.2115 15.8729L17.7032 16.5566L17.2115 15.8729ZM16.7837 16.2188L16.1262 15.6927L16.7837 16.2188ZM10.2716 16.2189L10.9292 15.6927L10.2716 16.2189ZM13.5276 5.26821C16.5507 5.26821 19.0014 7.71891 19.0014 10.742H20.6857C20.6857 6.78873 17.4809 3.58396 13.5276 3.58396V5.26821ZM8.05385 10.742C8.05385 7.71891 10.5046 5.26821 13.5276 5.26821V3.58396C9.57437 3.58396 6.36961 6.78873 6.36961 10.742H8.05385ZM10.3356 15.1893C8.95204 14.1942 8.05385 12.573 8.05385 10.742H6.36961C6.36961 13.1379 7.54754 15.2587 9.35215 16.5566L10.3356 15.1893ZM12.2443 20.5519C12.1613 19.0795 11.8233 17.6345 11.2471 16.2811L9.69743 16.9407C10.1974 18.1152 10.4907 19.369 10.5627 20.6467L12.2443 20.5519ZM14.6575 20.8148C13.9463 21.1704 13.1091 21.1704 12.3979 20.8148L11.6446 22.3212C12.83 22.9139 14.2253 22.9139 15.4107 22.3212L14.6575 20.8148ZM15.8083 16.281C15.2321 17.6344 14.894 19.0795 14.811 20.5519L16.4926 20.6467C16.5646 19.369 16.858 18.1151 17.3579 16.9407L15.8083 16.281ZM19.0014 10.7421C19.0014 12.573 18.1033 14.1942 16.7198 15.1892L17.7032 16.5566C19.5078 15.2586 20.6857 13.1379 20.6857 10.7421L19.0014 10.7421ZM19.1115 10.3258L19.1115 10.3258L20.5756 11.1583L20.5756 11.1583L19.1115 10.3258ZM19.8436 11.5841H19.8436V9.89989H19.8436V11.5841ZM20.5756 11.1583C20.8949 10.5969 20.4894 9.89989 19.8436 9.89989V11.5841C19.1978 11.5841 18.7923 10.8872 19.1115 10.3258L20.5756 11.1583ZM20.6857 10.7421C20.6857 10.8871 20.6482 11.0307 20.5756 11.1583L19.1115 10.3258C19.0389 10.4534 19.0014 10.597 19.0014 10.7421L20.6857 10.7421ZM15.4107 22.3212C15.5165 22.2683 15.654 22.2022 15.7708 22.1198L14.8002 20.7434C14.8147 20.7332 14.8192 20.7321 14.7939 20.7456C14.7662 20.7603 14.7279 20.7795 14.6575 20.8148L15.4107 22.3212ZM14.811 20.5519C14.806 20.641 14.803 20.693 14.8 20.731C14.7969 20.7693 14.7958 20.7645 14.8002 20.7434L16.4486 21.0892C16.4782 20.9483 16.4851 20.7809 16.4926 20.6467L14.811 20.5519ZM15.7708 22.1198C16.1285 21.8676 16.3587 21.5176 16.4486 21.0892L14.8002 20.7434C14.7981 20.7538 14.7965 20.7573 14.797 20.756C14.7976 20.7545 14.7995 20.7504 14.8029 20.7452C14.8064 20.7399 14.8094 20.7365 14.8106 20.7354C14.8115 20.7344 14.8089 20.7373 14.8002 20.7434L15.7708 22.1198ZM10.5627 20.6467C10.5703 20.7809 10.5772 20.9483 10.6068 21.0892L12.2551 20.7434C12.2595 20.7645 12.2584 20.7693 12.2554 20.731C12.2523 20.693 12.2493 20.641 12.2443 20.5519L10.5627 20.6467ZM12.3979 20.8148C12.3274 20.7795 12.2891 20.7603 12.2615 20.7456C12.2361 20.7321 12.2406 20.7332 12.2551 20.7434L11.2845 22.1198C11.4013 22.2022 11.5389 22.2683 11.6446 22.3212L12.3979 20.8148ZM10.6068 21.0892C10.6966 21.5176 10.9268 21.8676 11.2845 22.1198L12.2551 20.7434C12.2465 20.7373 12.2438 20.7344 12.2448 20.7354C12.2459 20.7365 12.249 20.7399 12.2524 20.7452C12.2559 20.7504 12.2578 20.7545 12.2584 20.7561C12.2589 20.7573 12.2573 20.7538 12.2551 20.7434L10.6068 21.0892ZM17.3579 16.9407C17.3799 16.8891 17.3966 16.8498 17.4115 16.816C17.4263 16.7824 17.4362 16.761 17.4435 16.7462C17.4559 16.721 17.4539 16.7292 17.4413 16.745L16.1262 15.6927C15.9663 15.8925 15.8784 16.1164 15.8083 16.281L17.3579 16.9407ZM16.7198 15.1892C16.5328 15.3238 16.2893 15.4889 16.1262 15.6927L17.4413 16.745C17.4187 16.7731 17.4089 16.7754 17.4575 16.737C17.5076 16.6975 17.5785 16.6463 17.7032 16.5566L16.7198 15.1892ZM9.35215 16.5566C9.4769 16.6463 9.54782 16.6976 9.5979 16.7371C9.64645 16.7754 9.63664 16.7732 9.61411 16.745L10.9292 15.6927C10.7661 15.4889 10.5226 15.3238 10.3356 15.1893L9.35215 16.5566ZM11.2471 16.2811C11.177 16.1164 11.0891 15.8926 10.9292 15.6927L9.61411 16.745C9.60149 16.7292 9.59943 16.7211 9.6119 16.7463C9.61917 16.761 9.62911 16.7824 9.64387 16.816C9.65875 16.8499 9.67548 16.8892 9.69743 16.9407L11.2471 16.2811ZM19.0014 10.742C19.0014 11.2071 19.3785 11.5841 19.8436 11.5841V9.89989C20.3087 9.89989 20.6857 10.2769 20.6857 10.742H19.0014Z" fill="#274C77"/>
<path d="M16.1593 17.5843V17.5843C14.47 18.26 12.5854 18.26 10.8961 17.5843V17.5843" stroke="#274C77" stroke-width="1.68424"/>
</svg>
