<svg width="27" height="27" viewBox="0 0 27 27" fill="none" xmlns="http://www.w3.org/2000/svg">
<path d="M13.5277 23.6936C17.9934 23.6936 21.7384 20.3529 21.7384 16.0844C21.7384 13.3765 20.3265 10.6708 18.8006 8.51491C17.2574 6.3347 15.5035 4.58721 14.6369 3.77407C14.0091 3.18513 13.0462 3.18513 12.4185 3.77407C11.5519 4.58721 9.798 6.3347 8.25481 8.51491C6.72885 10.6708 5.317 13.3765 5.317 16.0844C5.317 20.3529 9.06199 23.6936 13.5277 23.6936Z" stroke="#274C77" stroke-width="1.68424"/>
<path d="M13.5277 19.6935C12.9747 19.6935 12.4272 19.5846 11.9164 19.373C11.4055 19.1614 10.9413 18.8513 10.5503 18.4603C10.1593 18.0693 9.84919 17.6051 9.63759 17.0943C9.42599 16.5834 9.31708 16.0359 9.31708 15.4829" stroke="#274C77" stroke-width="1.68424" stroke-linecap="round"/>
</svg>
