<svg width="22" height="22" viewBox="0 0 22 22" fill="none" xmlns="http://www.w3.org/2000/svg">
<path d="M20.0062 10.5269L20.6638 11.0529C20.9098 10.7454 20.9098 10.3084 20.6638 10.0008L20.0062 10.5269ZM12.1113 9.68476C11.6462 9.68476 11.2691 10.0618 11.2691 10.5269C11.2691 10.992 11.6462 11.369 12.1113 11.369L12.1113 9.68476ZM17.1549 15.439L20.6638 11.0529L19.3486 10.0008L15.8397 14.3869L17.1549 15.439ZM20.6638 10.0008L17.1549 5.61475L15.8397 6.66689L19.3486 11.0529L20.6638 10.0008ZM20.0062 9.68476L12.1113 9.68476L12.1113 11.369L20.0062 11.369L20.0062 9.68476Z" fill="#274C77"/>
<path d="M12.9884 13.92L12.9884 14.156C12.9884 15.7744 12.9884 16.5835 12.5144 17.143C12.0405 17.7025 11.2423 17.8355 9.646 18.1016L9.44826 18.1346C6.20517 18.6751 4.58362 18.9453 3.52275 18.0466C2.46187 17.1479 2.46187 15.504 2.46187 12.2162L2.46187 8.8375C2.46187 5.54967 2.46187 3.90575 3.52275 3.00706C4.58362 2.10836 6.20517 2.37862 9.44826 2.91913L9.646 2.95209C11.2423 3.21814 12.0405 3.35117 12.5144 3.91066C12.9884 4.47015 12.9884 5.27932 12.9884 6.89767L12.9884 6.96013" stroke="#274C77" stroke-width="1.68424" stroke-linecap="round"/>
</svg>
