<svg width="13" height="13" viewBox="0 0 13 13" fill="none" xmlns="http://www.w3.org/2000/svg">
<path d="M5.52632 3.09248C6.02313 1.85392 6.27154 1.23465 6.6987 1.23465C7.12586 1.23465 7.37427 1.85393 7.87108 3.09248L7.89422 3.15015C8.17489 3.84987 8.31523 4.19973 8.60125 4.41238C8.88726 4.62503 9.26272 4.65866 10.0136 4.72591L10.1494 4.73806C11.3783 4.84813 11.9928 4.90316 12.1243 5.2941C12.2558 5.68505 11.7994 6.10022 10.8868 6.93057L10.5822 7.20769C10.1202 7.62803 9.88915 7.8382 9.78148 8.11365C9.76139 8.16503 9.74469 8.21768 9.73149 8.27124C9.66072 8.5584 9.72837 8.86329 9.86366 9.47307L9.90577 9.66288C10.1544 10.7835 10.2787 11.3439 10.0617 11.5856C9.98056 11.6759 9.87514 11.7409 9.75803 11.7728C9.44463 11.8584 8.99969 11.4958 8.10981 10.7707C7.52548 10.2945 7.23331 10.0565 6.89787 10.0029C6.76593 9.98183 6.63148 9.98183 6.49953 10.0029C6.16409 10.0565 5.87193 10.2945 5.2876 10.7707C4.39771 11.4958 3.95277 11.8584 3.63937 11.7728C3.52227 11.7409 3.41685 11.6759 3.33574 11.5856C3.11867 11.3439 3.24299 10.7835 3.49163 9.66288L3.53375 9.47307C3.66904 8.86329 3.73668 8.5584 3.66591 8.27124C3.65271 8.21768 3.63601 8.16503 3.61593 8.11365C3.50826 7.8382 3.27725 7.62803 2.81524 7.20769L2.51063 6.93057C1.59795 6.10022 1.14162 5.68505 1.2731 5.2941C1.40458 4.90316 2.01906 4.84813 3.24802 4.73806L3.38378 4.72591C4.13469 4.65866 4.51014 4.62503 4.79616 4.41238C5.08217 4.19973 5.22251 3.84987 5.50319 3.15015L5.52632 3.09248Z" fill="#F8F8FB" stroke="#F8F8FB" stroke-width="1.17897"/>
</svg>
